<svg data-v-fde0c5aa="" xmlns="http://www.w3.org/2000/svg" viewBox="0 0 300 300" class="iconAboveSlogan"><!----><defs data-v-fde0c5aa=""><!----></defs><rect data-v-fde0c5aa="" fill="transparent" x="0" y="0" width="300px" height="300px" class="logo-background-square"></rect><defs data-v-fde0c5aa=""><!----></defs><g data-v-fde0c5aa="" id="9b76151d-f599-4f7d-abf3-3394c2e10861" fill="#000000" transform="matrix(2.7739252304650295,0,0,2.7739252304650295,17.087378640282783,145.78762400221845)"><path d="M6.71 13.30L6.71 12.39L2.03 12.39L2.03 9.00L6.57 9.00L6.57 8.08L2.03 8.08L2.03 4.69L6.71 4.69L6.71 3.78L1.05 3.78L1.05 13.30ZM13.71 10.22C13.71 10.82 13.50 11.34 13.08 11.79C12.67 12.24 12.15 12.46 11.54 12.46C10.92 12.46 10.41 12.24 9.99 11.79C9.57 11.34 9.37 10.82 9.37 10.22C9.37 9.62 9.57 9.10 9.99 8.65C10.41 8.20 10.92 7.98 11.54 7.98C12.15 7.98 12.67 8.20 13.08 8.65C13.50 9.10 13.71 9.62 13.71 10.22ZM14.69 16.80L14.69 7.14L13.71 7.14L13.71 8.19C13.65 8.12 13.59 8.05 13.53 7.98C12.95 7.33 12.23 7.00 11.38 7.00C10.53 7.00 9.81 7.33 9.23 7.98C8.67 8.61 8.39 9.36 8.39 10.22C8.39 11.08 8.67 11.83 9.23 12.46C9.81 13.11 10.53 13.44 11.38 13.44C12.23 13.44 12.95 13.11 13.53 12.46C13.59 12.39 13.65 12.32 13.71 12.25L13.71 16.80ZM21.04 12.24L21.04 13.30L22.02 13.30L22.02 7.14L21.04 7.14L21.04 9.72C21.04 10.57 20.88 11.24 20.56 11.72C20.25 12.21 19.71 12.45 18.94 12.45C18.52 12.45 18.22 12.30 18.04 12.02C17.86 11.73 17.77 11.39 17.77 10.99L17.77 7.14L16.79 7.14L16.79 10.99C16.79 11.70 16.98 12.29 17.37 12.74C17.75 13.20 18.29 13.43 18.98 13.43C19.89 13.43 20.58 13.03 21.04 12.24ZM24.91 5.01C24.78 4.89 24.64 4.83 24.47 4.83C24.29 4.83 24.15 4.89 24.02 5.01C23.90 5.13 23.84 5.28 23.84 5.45C23.84 5.63 23.90 5.77 24.02 5.89C24.15 6.02 24.29 6.08 24.47 6.08C24.64 6.08 24.78 6.02 24.91 5.89C25.03 5.77 25.09 5.63 25.09 5.45C25.09 5.28 25.03 5.13 24.91 5.01ZM24.96 13.30L24.96 7.14L23.98 7.14L23.98 13.30ZM28.10 16.80L28.10 12.25C28.15 12.32 28.21 12.39 28.27 12.46C28.85 13.11 29.57 13.44 30.42 13.44C31.27 13.44 31.99 13.11 32.57 12.46C33.14 11.83 33.42 11.08 33.42 10.22C33.42 9.36 33.14 8.61 32.57 7.98C31.99 7.33 31.27 7.00 30.42 7.00C29.57 7.00 28.85 7.33 28.27 7.98C28.21 8.05 28.15 8.12 28.10 8.19L28.10 7.14L27.12 7.14L27.12 16.80ZM32.44 10.22C32.44 10.82 32.23 11.34 31.82 11.79C31.40 12.24 30.88 12.46 30.27 12.46C29.65 12.46 29.14 12.24 28.72 11.79C28.31 11.34 28.10 10.82 28.10 10.22C28.10 9.62 28.31 9.10 28.72 8.65C29.14 8.20 29.65 7.98 30.27 7.98C30.88 7.98 31.40 8.20 31.82 8.65C32.23 9.10 32.44 9.62 32.44 10.22ZM44.53 4.69L44.53 3.78L38.88 3.78L38.88 13.30L39.86 13.30L39.86 9.00L44.39 9.00L44.39 8.08L39.86 8.08L39.86 4.69ZM50.90 10.19C50.90 10.80 50.68 11.32 50.25 11.76C49.81 12.20 49.28 12.42 48.66 12.42C48.05 12.42 47.52 12.20 47.08 11.76C46.64 11.32 46.42 10.80 46.42 10.19C46.42 9.58 46.64 9.05 47.08 8.61C47.52 8.17 48.05 7.95 48.66 7.95C49.28 7.95 49.81 8.17 50.25 8.61C50.68 9.05 50.90 9.58 50.90 10.19ZM51.88 10.19C51.88 9.31 51.57 8.55 50.94 7.92C50.31 7.29 49.55 6.97 48.66 6.97C47.78 6.97 47.02 7.29 46.39 7.92C45.76 8.55 45.44 9.31 45.44 10.19C45.44 11.08 45.76 11.84 46.39 12.46C47.02 13.09 47.78 13.40 48.66 13.40C49.55 13.40 50.30 13.09 50.94 12.46C51.57 11.84 51.88 11.08 51.88 10.19ZM58.60 10.19C58.60 10.80 58.38 11.32 57.95 11.76C57.51 12.20 56.98 12.42 56.36 12.42C55.75 12.42 55.22 12.20 54.78 11.76C54.34 11.32 54.12 10.80 54.12 10.19C54.12 9.58 54.34 9.05 54.78 8.61C55.22 8.17 55.75 7.95 56.36 7.95C56.98 7.95 57.51 8.17 57.95 8.61C58.38 9.05 58.60 9.58 58.60 10.19ZM59.58 10.19C59.58 9.31 59.27 8.55 58.64 7.92C58.01 7.29 57.25 6.97 56.36 6.97C55.48 6.97 54.72 7.29 54.09 7.92C53.46 8.55 53.14 9.31 53.14 10.19C53.14 11.08 53.46 11.84 54.09 12.46C54.72 13.09 55.48 13.40 56.36 13.40C57.25 13.40 58.00 13.09 58.64 12.46C59.27 11.84 59.58 11.08 59.58 10.19ZM60.49 8.05L62.03 8.05L62.03 13.30L63.01 13.30L63.01 8.05L64.54 8.05L64.54 7.14L63.01 7.14L63.01 4.75L62.03 4.75L62.03 7.14L60.49 7.14ZM71.89 14.08L74.82 7.14L73.72 7.14L71.88 11.89L69.89 6.82L67.90 11.89L66.05 7.14L64.96 7.14L67.91 14.08L69.89 9.11ZM82.03 10.08C82.03 9.23 81.70 8.50 81.05 7.88C80.42 7.28 79.67 6.97 78.81 6.97C77.92 6.97 77.16 7.29 76.53 7.92C75.90 8.55 75.59 9.31 75.59 10.19C75.59 11.08 75.90 11.84 76.53 12.46C76.83 12.75 77.17 12.98 77.55 13.15C77.94 13.31 78.41 13.40 78.95 13.40C79.50 13.40 80.04 13.23 80.56 12.89C81.09 12.55 81.48 12.08 81.75 11.49L80.63 11.49C80.41 11.78 80.14 12.01 79.82 12.17C79.50 12.34 79.16 12.42 78.81 12.42C78.28 12.42 77.80 12.25 77.38 11.90C76.96 11.56 76.70 11.13 76.61 10.60L82.03 10.60ZM80.99 9.76L76.62 9.76C76.68 9.50 76.78 9.26 76.92 9.04C77.38 8.31 78.01 7.95 78.81 7.95C79.33 7.95 79.79 8.12 80.20 8.46C80.61 8.80 80.88 9.23 80.99 9.76ZM88.54 10.22C88.54 10.82 88.33 11.34 87.91 11.79C87.50 12.24 86.98 12.46 86.37 12.46C85.75 12.46 85.24 12.24 84.82 11.79C84.40 11.34 84.20 10.82 84.20 10.22C84.20 9.62 84.40 9.10 84.82 8.65C85.24 8.20 85.75 7.98 86.37 7.98C86.98 7.98 87.50 8.20 87.91 8.65C88.33 9.10 88.54 9.62 88.54 10.22ZM89.52 13.30L89.52 7.14L88.54 7.14L88.54 8.19C88.48 8.12 88.42 8.05 88.36 7.98C87.78 7.33 87.06 7.00 86.21 7.00C85.36 7.00 84.64 7.33 84.06 7.98C83.50 8.61 83.22 9.36 83.22 10.22C83.22 11.08 83.50 11.83 84.06 12.46C84.64 13.11 85.36 13.44 86.21 13.44C87.06 13.44 87.78 13.11 88.36 12.46C88.42 12.39 88.48 12.32 88.54 12.25L88.54 13.30ZM94.78 8.41L94.78 7.14C94.58 7.06 94.38 7.01 94.16 7.01C93.47 7.01 92.97 7.40 92.64 8.16L92.60 8.41L92.60 7.14L91.62 7.14L91.62 13.30L92.60 13.30L92.60 10.22C92.60 9.71 92.71 9.26 92.95 8.86C93.07 8.64 93.22 8.47 93.40 8.32C93.58 8.18 93.80 8.11 94.06 8.11C94.31 8.11 94.55 8.21 94.78 8.41Z"></path></g><defs data-v-fde0c5aa=""><linearGradient data-v-fde0c5aa="" gradientTransform="rotate(25)" id="324582cf-d564-4e55-b6f3-1598fd0ae61e" x1="0%" y1="0%" x2="100%" y2="0%"><stop data-v-fde0c5aa="" offset="0%" stop-color="#E98E0D" stop-opacity="1"></stop><stop data-v-fde0c5aa="" offset="100%" stop-color="#1536F1" stop-opacity="1"></stop></linearGradient></defs><g data-v-fde0c5aa="" id="9fe4805b-6119-411b-8ed3-870160ad7cf5" stroke="none" fill="url(#324582cf-d564-4e55-b6f3-1598fd0ae61e)" transform="matrix(1.6911657085037641,0,0,1.6911657085037641,122.94134866393978,84.15575862189317)"><path d="M29.625 1l-3.099 3.172H4.054v23.657h22.472L29.625 31H1V1h28.625M32 0H0v32h32l-5.054-5.172H5.054V5.172h21.893L32 0z"></path><path d="M21.038 10.962v10.076H10.962V10.962h10.076m1-1H9.962v12.076h12.076V9.962z"></path></g><defs data-v-fde0c5aa=""><!----></defs><g data-v-fde0c5aa="" id="94044f8b-d06f-4b7d-8c43-8cf43dad5f72" fill="#000000" transform="matrix(1.159885829547377,0,0,1.159885829547377,50.86456101905355,196.83371333976345)"><path d="M10.54 5.74L10.54 5.74L10.54 5.74Q10.58 5.98 10.61 6.07L10.61 6.07L10.61 6.07Q10.63 6.16 10.63 6.31L10.63 6.31L10.63 6.31Q10.63 6.78 10.42 7.18L10.42 7.18L10.42 7.18Q10.22 7.57 9.87 7.74L9.87 7.74L9.87 7.74Q9.59 7.36 9.18 7.09L9.18 7.09L9.18 7.09Q8.78 6.82 8.29 6.64L8.29 6.64L8.29 6.64Q7.81 6.47 7.29 6.38L7.29 6.38L7.29 6.38Q6.78 6.30 6.29 6.30L6.29 6.30L6.29 6.30Q5.80 6.30 5.37 6.38L5.37 6.38L5.37 6.38Q4.94 6.45 4.61 6.59L4.61 6.59L4.61 6.59Q4.28 6.72 4.09 6.92L4.09 6.92L4.09 6.92Q3.91 7.11 3.91 7.36L3.91 7.36L3.91 7.36Q3.95 7.67 4.28 7.99L4.28 7.99L4.28 7.99Q4.62 8.30 5.11 8.60L5.11 8.60L5.11 8.60Q5.60 8.90 6.20 9.20L6.20 9.20L6.20 9.20Q6.79 9.49 7.36 9.76L7.36 9.76L7.36 9.76Q8.08 10.09 8.60 10.38L8.60 10.38L8.60 10.38Q9.11 10.67 9.45 11.01L9.45 11.01L9.45 11.01Q9.79 11.35 9.95 11.79L9.95 11.79L9.95 11.79Q10.12 12.22 10.12 12.84L10.12 12.84L10.12 12.84Q10.12 13.55 9.88 14.18L9.88 14.18L9.88 14.18Q9.65 14.80 9.19 15.26L9.19 15.26L9.19 15.26Q8.74 15.72 8.09 15.98L8.09 15.98L8.09 15.98Q7.45 16.24 6.65 16.24L6.65 16.24L6.65 16.24Q5.87 16.24 4.96 16.00L4.96 16.00L4.96 16.00Q4.05 15.76 3.25 15.35L3.25 15.35L3.25 15.35Q2.46 14.94 1.94 14.40L1.94 14.40L1.94 14.40Q1.41 13.86 1.41 13.26L1.41 13.26L1.41 13.26Q1.41 12.98 1.57 12.54L1.57 12.54L1.57 12.54Q1.74 12.11 2.16 11.63L2.16 11.63L2.16 11.63Q2.20 12.05 2.61 12.63L2.61 12.63L2.61 12.63Q3.02 13.20 3.85 13.69L3.85 13.69L3.85 13.69Q4.62 14.14 5.44 14.34L5.44 14.34L5.44 14.34Q6.26 14.55 6.97 14.55L6.97 14.55L6.97 14.55Q7.76 14.55 8.25 14.35L8.25 14.35L8.25 14.35Q8.74 14.15 9.02 13.88L9.02 13.88L9.02 13.88Q9.30 13.61 9.41 13.33L9.41 13.33L9.41 13.33Q9.52 13.05 9.53 12.88L9.53 12.88L9.53 12.88Q9.52 12.60 9.28 12.34L9.28 12.34L9.28 12.34Q9.03 12.08 8.62 11.84L8.62 11.84L8.62 11.84Q8.20 11.59 7.66 11.34L7.66 11.34L7.66 11.34Q7.11 11.09 6.52 10.84L6.52 10.84L6.52 10.84Q5.64 10.44 5.00 10.10L5.00 10.10L5.00 10.10Q4.37 9.76 3.96 9.40L3.96 9.40L3.96 9.40Q3.54 9.04 3.35 8.65L3.35 8.65L3.35 8.65Q3.16 8.26 3.16 7.76L3.16 7.76L3.16 7.76Q3.16 6.97 3.64 6.27L3.64 6.27L3.64 6.27Q4.12 5.57 5.01 5.21L5.01 5.21L5.01 5.21Q5.46 5.01 5.97 4.93L5.97 4.93L5.97 4.93Q6.48 4.84 6.97 4.84L6.97 4.84L6.97 4.84Q7.90 4.84 8.78 5.10L8.78 5.10L8.78 5.10Q9.66 5.35 10.54 5.74ZM27.78 7.63L27.78 7.63L27.78 7.63Q27.78 8.40 27.39 9.10L27.39 9.10L27.39 9.10Q27.01 9.80 26.36 10.32L26.36 10.32L26.36 10.32Q25.70 10.85 24.83 11.16L24.83 11.16L24.83 11.16Q23.95 11.47 22.97 11.47L22.97 11.47L22.97 11.47Q22.62 11.47 22.42 11.38L22.42 11.38L22.42 11.38Q22.22 11.28 21.97 11.02L21.97 11.02L21.97 11.02Q21.27 12.54 20.82 13.82L20.82 13.82L20.82 13.82Q20.38 15.11 20.13 16.31L20.13 16.31L20.13 16.31Q19.60 16.18 19.26 15.87L19.26 15.87L19.26 15.87Q18.93 15.55 18.65 15.08L18.65 15.08L18.65 15.08Q18.79 14.81 18.98 14.38L18.98 14.38L18.98 14.38Q19.18 13.94 19.46 13.31L19.46 13.31L19.46 13.31Q19.74 12.67 20.11 11.78L20.11 11.78L20.11 11.78Q20.48 10.89 20.99 9.70L20.99 9.70L20.99 9.70Q21.21 9.16 21.38 8.75L21.38 8.75L21.38 8.75Q21.55 8.34 21.67 7.99L21.67 7.99L21.67 7.99Q21.80 7.63 21.90 7.28L21.90 7.28L21.90 7.28Q22.01 6.93 22.12 6.51L22.12 6.51L22.12 6.51Q21.46 6.72 20.91 7L20.91 7L20.91 7Q20.36 7.28 19.99 7.59L19.99 7.59L19.99 7.59Q19.87 7.50 19.73 7.34L19.73 7.34L19.73 7.34Q19.60 7.17 19.49 6.96L19.49 6.96L19.49 6.96Q19.38 6.76 19.29 6.55L19.29 6.55L19.29 6.55Q19.21 6.34 19.19 6.17L19.19 6.17L19.19 6.17Q19.60 5.89 20.20 5.66L20.20 5.66L20.20 5.66Q20.80 5.42 21.49 5.24L21.49 5.24L21.49 5.24Q22.18 5.07 22.91 4.97L22.91 4.97L22.91 4.97Q23.65 4.87 24.32 4.87L24.32 4.87L24.32 4.87Q25.12 4.87 25.76 5.07L25.76 5.07L25.76 5.07Q26.40 5.28 26.85 5.64L26.85 5.64L26.85 5.64Q27.30 6.01 27.54 6.51L27.54 6.51L27.54 6.51Q27.78 7.01 27.78 7.63ZM25.28 5.95L25.28 5.95L25.28 5.95Q24.75 5.95 24.19 6.03L24.19 6.03L24.36 6.29L24.36 6.29Q24.22 6.47 24.01 6.83L24.01 6.83L24.01 6.83Q23.80 7.20 23.55 7.71L23.55 7.71L23.55 7.71Q23.30 8.22 22.99 8.85L22.99 8.85L22.99 8.85Q22.69 9.48 22.36 10.18L22.36 10.18L22.36 10.18Q23.45 10.18 24.35 9.97L24.35 9.97L24.35 9.97Q25.24 9.77 25.88 9.41L25.88 9.41L25.88 9.41Q26.52 9.06 26.87 8.58L26.87 8.58L26.87 8.58Q27.23 8.11 27.23 7.56L27.23 7.56L27.23 7.56Q27.23 6.83 26.74 6.39L26.74 6.39L26.74 6.39Q26.25 5.95 25.28 5.95ZM40.68 4.98L40.68 4.98L40.68 4.98Q40.95 5.10 41.23 5.27L41.23 5.27L41.23 5.27Q41.51 5.45 41.75 5.63L41.75 5.63L41.75 5.63Q41.99 5.81 42.15 5.98L42.15 5.98L42.15 5.98Q42.31 6.16 42.32 6.27L42.32 6.27L42.32 6.27Q42.08 6.22 41.85 6.20L41.85 6.20L41.85 6.20Q41.61 6.17 41.41 6.17L41.41 6.17L41.41 6.17Q40.78 6.17 40.16 6.48L40.16 6.48L40.16 6.48Q39.54 6.79 38.98 7.32L38.98 7.32L38.98 7.32Q38.42 7.85 37.94 8.57L37.94 8.57L37.94 8.57Q37.46 9.28 37.12 10.09L37.12 10.09L37.12 10.09Q36.78 10.91 36.58 11.77L36.58 11.77L36.58 11.77Q36.39 12.64 36.39 13.48L36.39 13.48L36.39 13.48Q36.39 14.57 36.75 15.11L36.75 15.11L36.75 15.11Q37.11 15.64 37.81 15.64L37.81 15.64L37.81 15.64Q38.15 15.64 38.54 15.51L38.54 15.51L38.54 15.51Q38.93 15.37 39.34 15.13L39.34 15.13L39.34 15.13Q39.75 14.90 40.14 14.56L40.14 14.56L40.14 14.56Q40.53 14.22 40.87 13.82L40.87 13.82L40.87 13.82Q41.36 13.23 41.75 12.48L41.75 12.48L41.75 12.48Q42.14 11.73 42.41 10.89L42.41 10.89L42.41 10.89Q42.69 10.05 42.83 9.16L42.83 9.16L42.83 9.16Q42.98 8.27 42.98 7.42L42.98 7.42L42.98 7.42Q42.98 7.08 42.97 6.85L42.97 6.85L42.97 6.85Q42.95 6.62 42.93 6.46L42.93 6.46L42.93 6.46Q42.91 6.30 42.90 6.20L42.90 6.20L42.90 6.20Q42.88 6.10 42.87 6.03L42.87 6.03L42.87 6.03Q43.04 6.12 43.24 6.24L43.24 6.24L43.24 6.24Q43.44 6.36 43.62 6.59L43.62 6.59L43.62 6.59Q43.79 6.82 43.91 7.20L43.91 7.20L43.91 7.20Q44.03 7.57 44.03 8.18L44.03 8.18L44.03 8.18Q44.03 9.16 43.80 10.10L43.80 10.10L43.80 10.10Q43.57 11.05 43.16 11.90L43.16 11.90L43.16 11.90Q42.74 12.75 42.18 13.50L42.18 13.50L42.18 13.50Q41.62 14.24 40.98 14.80L40.98 14.80L40.98 14.80Q40.14 15.54 39.19 15.95L39.19 15.95L39.19 15.95Q38.23 16.35 37.35 16.35L37.35 16.35L37.35 16.35Q36.06 16.35 35.39 15.53L35.39 15.53L35.39 15.53Q34.71 14.71 34.71 13.12L34.71 13.12L34.71 13.12Q34.71 12.26 34.90 11.31L34.90 11.31L34.90 11.31Q35.08 10.36 35.43 9.44L35.43 9.44L35.43 9.44Q35.77 8.51 36.25 7.68L36.25 7.68L36.25 7.68Q36.72 6.85 37.29 6.21L37.29 6.21L37.29 6.21Q37.86 5.57 38.51 5.19L38.51 5.19L38.51 5.19Q39.16 4.82 39.84 4.82L39.84 4.82L39.84 4.82Q40.07 4.82 40.26 4.85L40.26 4.85L40.26 4.85Q40.46 4.89 40.68 4.98ZM60.87 7.46L60.87 7.46L60.87 7.46Q60.87 8.13 60.57 8.73L60.57 8.73L60.57 8.73Q60.27 9.32 59.74 9.79L59.74 9.79L59.74 9.79Q59.21 10.26 58.49 10.58L58.49 10.58L58.49 10.58Q57.78 10.91 56.94 11.02L56.94 11.02L56.94 11.02Q57.15 11.65 57.45 12.31L57.45 12.31L57.45 12.31Q57.75 12.98 58.10 13.59L58.10 13.59L58.10 13.59Q58.45 14.21 58.83 14.73L58.83 14.73L58.83 14.73Q59.21 15.25 59.57 15.58L59.57 15.58L59.57 15.58Q59.50 15.72 59.37 15.86L59.37 15.86L59.37 15.86Q59.23 16.00 59.06 16.12L59.06 16.12L59.06 16.12Q58.88 16.24 58.70 16.32L58.70 16.32L58.70 16.32Q58.51 16.39 58.34 16.39L58.34 16.39L58.34 16.39Q58.03 16.39 57.75 16.10L57.75 16.10L57.75 16.10Q57.47 15.81 57.18 15.17L57.18 15.17L57.18 15.17Q56.90 14.53 56.58 13.52L56.58 13.52L56.58 13.52Q56.27 12.50 55.89 11.07L55.89 11.07L55.89 11.07Q55.73 11.07 55.58 11.07L55.58 11.07L55.58 11.07Q55.43 11.07 55.34 11.05L55.34 11.05L55.34 11.05Q55.24 10.99 55.13 10.85L55.13 10.85L55.13 10.85Q54.75 11.66 54.46 12.38L54.46 12.38L54.46 12.38Q54.17 13.09 53.94 13.76L53.94 13.76L53.94 13.76Q53.70 14.42 53.53 15.04L53.53 15.04L53.53 15.04Q53.35 15.67 53.23 16.31L53.23 16.31L53.23 16.31Q52.75 16.20 52.40 15.90L52.40 15.90L52.40 15.90Q52.05 15.61 51.74 15.08L51.74 15.08L51.74 15.08Q51.80 14.95 51.86 14.83L51.86 14.83L51.86 14.83Q51.93 14.71 52.02 14.50L52.02 14.50L52.02 14.50Q52.12 14.28 52.27 13.94L52.27 13.94L52.27 13.94Q52.42 13.61 52.66 13.05L52.66 13.05L52.66 13.05Q52.91 12.49 53.25 11.68L53.25 11.68L53.25 11.68Q53.59 10.86 54.08 9.70L54.08 9.70L54.08 9.70Q54.31 9.18 54.47 8.79L54.47 8.79L54.47 8.79Q54.63 8.40 54.75 8.04L54.75 8.04L54.75 8.04Q54.88 7.69 54.98 7.33L54.98 7.33L54.98 7.33Q55.09 6.97 55.20 6.51L55.20 6.51L55.20 6.51Q54.56 6.73 54.01 7.01L54.01 7.01L54.01 7.01Q53.45 7.28 53.09 7.59L53.09 7.59L53.09 7.59Q52.96 7.50 52.83 7.34L52.83 7.34L52.83 7.34Q52.70 7.17 52.58 6.96L52.58 6.96L52.58 6.96Q52.47 6.76 52.39 6.55L52.39 6.55L52.39 6.55Q52.30 6.34 52.29 6.17L52.29 6.17L52.29 6.17Q52.71 5.89 53.32 5.66L53.32 5.66L53.32 5.66Q53.93 5.42 54.61 5.24L54.61 5.24L54.61 5.24Q55.30 5.07 56.01 4.97L56.01 4.97L56.01 4.97Q56.73 4.87 57.34 4.87L57.34 4.87L57.34 4.87Q59.02 4.87 59.95 5.56L59.95 5.56L59.95 5.56Q60.87 6.26 60.87 7.46ZM57.29 6.02L57.46 6.29L57.46 6.29Q57.36 6.41 57.15 6.79L57.15 6.79L57.15 6.79Q56.94 7.17 56.67 7.69L56.67 7.69L56.67 7.69Q56.39 8.22 56.09 8.83L56.09 8.83L56.09 8.83Q55.79 9.45 55.51 10.05L55.51 10.05L55.51 10.05Q56.56 10.05 57.44 9.86L57.44 9.86L57.44 9.86Q58.32 9.66 58.97 9.30L58.97 9.30L58.97 9.30Q59.61 8.95 59.97 8.46L59.97 8.46L59.97 8.46Q60.33 7.98 60.33 7.39L60.33 7.39L60.33 7.39Q60.33 6.69 59.82 6.32L59.82 6.32L59.82 6.32Q59.32 5.95 58.27 5.95L58.27 5.95L58.27 5.95Q58.03 5.95 57.79 5.97L57.79 5.97L57.79 5.97Q57.55 5.99 57.29 6.02L57.29 6.02ZM70.22 6.69L70.22 6.69L70.22 6.69Q69.66 6.69 69.36 6.38L69.36 6.38L69.36 6.38Q69.06 6.06 69.06 5.61L69.06 5.61L69.06 5.61Q69.06 5.50 69.10 5.35L69.10 5.35L69.10 5.35Q69.13 5.19 69.19 5.08L69.19 5.08L69.19 5.08Q69.37 5.17 69.73 5.20L69.73 5.20L69.73 5.20Q70.08 5.24 70.56 5.24L70.56 5.24L70.56 5.24Q71.27 5.24 72.18 5.17L72.18 5.17L72.18 5.17Q73.08 5.11 73.91 5.04L73.91 5.04L73.91 5.04Q74.73 4.97 75.36 4.91L75.36 4.91L75.36 4.91Q75.99 4.84 76.17 4.84L76.17 4.84L76.17 4.84Q76.69 4.84 76.92 5.23L76.92 5.23L76.92 5.23Q77.15 5.61 77.27 6.26L77.27 6.26L77.27 6.26Q76.90 6.23 76.55 6.21L76.55 6.21L76.55 6.21Q76.19 6.19 75.94 6.19L75.94 6.19L75.94 6.19Q75.49 6.19 75.03 6.22L75.03 6.22L75.03 6.22Q74.58 6.24 74.12 6.30L74.12 6.30L74.12 6.30Q73.92 6.71 73.68 7.26L73.68 7.26L73.68 7.26Q73.44 7.81 73.21 8.41L73.21 8.41L73.21 8.41Q72.98 9.02 72.77 9.61L72.77 9.61L72.77 9.61Q72.56 10.21 72.41 10.68L72.41 10.68L72.41 10.68Q72.10 11.61 71.87 12.39L71.87 12.39L71.87 12.39Q71.64 13.17 71.46 13.85L71.46 13.85L71.46 13.85Q71.29 14.53 71.16 15.15L71.16 15.15L71.16 15.15Q71.04 15.76 70.94 16.35L70.94 16.35L70.94 16.35Q70.00 16.21 69.37 15.18L69.37 15.18L69.37 15.18Q69.48 14.74 69.64 14.23L69.64 14.23L69.64 14.23Q69.80 13.72 70.02 13.07L70.02 13.07L70.02 13.07Q70.24 12.42 70.53 11.59L70.53 11.59L70.53 11.59Q70.83 10.77 71.20 9.72L71.20 9.72L71.20 9.72Q71.34 9.32 71.50 8.90L71.50 8.90L71.50 8.90Q71.65 8.47 71.80 8.05L71.80 8.05L71.80 8.05Q71.95 7.63 72.07 7.24L72.07 7.24L72.07 7.24Q72.18 6.85 72.27 6.52L72.27 6.52L72.27 6.52Q71.68 6.59 71.16 6.64L71.16 6.64L71.16 6.64Q70.63 6.69 70.22 6.69ZM91.81 5.74L91.81 5.74L91.81 5.74Q91.85 5.98 91.88 6.07L91.88 6.07L91.88 6.07Q91.90 6.16 91.90 6.31L91.90 6.31L91.90 6.31Q91.90 6.78 91.69 7.18L91.69 7.18L91.69 7.18Q91.49 7.57 91.14 7.74L91.14 7.74L91.14 7.74Q90.86 7.36 90.45 7.09L90.45 7.09L90.45 7.09Q90.05 6.82 89.57 6.64L89.57 6.64L89.57 6.64Q89.08 6.47 88.56 6.38L88.56 6.38L88.56 6.38Q88.05 6.30 87.56 6.30L87.56 6.30L87.56 6.30Q87.07 6.30 86.64 6.38L86.64 6.38L86.64 6.38Q86.21 6.45 85.88 6.59L85.88 6.59L85.88 6.59Q85.55 6.72 85.37 6.92L85.37 6.92L85.37 6.92Q85.18 7.11 85.18 7.36L85.18 7.36L85.18 7.36Q85.22 7.67 85.55 7.99L85.55 7.99L85.55 7.99Q85.89 8.30 86.38 8.60L86.38 8.60L86.38 8.60Q86.87 8.90 87.47 9.20L87.47 9.20L87.47 9.20Q88.06 9.49 88.63 9.76L88.63 9.76L88.63 9.76Q89.35 10.09 89.87 10.38L89.87 10.38L89.87 10.38Q90.38 10.67 90.72 11.01L90.72 11.01L90.72 11.01Q91.06 11.35 91.22 11.79L91.22 11.79L91.22 11.79Q91.39 12.22 91.39 12.84L91.39 12.84L91.39 12.84Q91.39 13.55 91.15 14.18L91.15 14.18L91.15 14.18Q90.92 14.80 90.46 15.26L90.46 15.26L90.46 15.26Q90.01 15.72 89.36 15.98L89.36 15.98L89.36 15.98Q88.72 16.24 87.92 16.24L87.92 16.24L87.92 16.24Q87.14 16.24 86.23 16.00L86.23 16.00L86.23 16.00Q85.32 15.76 84.53 15.35L84.53 15.35L84.53 15.35Q83.73 14.94 83.21 14.40L83.21 14.40L83.21 14.40Q82.68 13.86 82.68 13.26L82.68 13.26L82.68 13.26Q82.68 12.98 82.85 12.54L82.85 12.54L82.85 12.54Q83.01 12.11 83.43 11.63L83.43 11.63L83.43 11.63Q83.47 12.05 83.88 12.63L83.88 12.63L83.88 12.63Q84.29 13.20 85.12 13.69L85.12 13.69L85.12 13.69Q85.89 14.14 86.71 14.34L86.71 14.34L86.71 14.34Q87.53 14.55 88.24 14.55L88.24 14.55L88.24 14.55Q89.03 14.55 89.52 14.35L89.52 14.35L89.52 14.35Q90.01 14.15 90.29 13.88L90.29 13.88L90.29 13.88Q90.57 13.61 90.68 13.33L90.68 13.33L90.68 13.33Q90.79 13.05 90.80 12.88L90.80 12.88L90.80 12.88Q90.79 12.60 90.55 12.34L90.55 12.34L90.55 12.34Q90.30 12.08 89.89 11.84L89.89 11.84L89.89 11.84Q89.47 11.59 88.93 11.34L88.93 11.34L88.93 11.34Q88.38 11.09 87.79 10.84L87.79 10.84L87.79 10.84Q86.91 10.44 86.28 10.10L86.28 10.10L86.28 10.10Q85.64 9.76 85.23 9.40L85.23 9.40L85.23 9.40Q84.81 9.04 84.62 8.65L84.62 8.65L84.62 8.65Q84.43 8.26 84.43 7.76L84.43 7.76L84.43 7.76Q84.43 6.97 84.91 6.27L84.91 6.27L84.91 6.27Q85.39 5.57 86.28 5.21L86.28 5.21L86.28 5.21Q86.73 5.01 87.24 4.93L87.24 4.93L87.24 4.93Q87.75 4.84 88.24 4.84L88.24 4.84L88.24 4.84Q89.17 4.84 90.05 5.10L90.05 5.10L90.05 5.10Q90.93 5.35 91.81 5.74ZM118.97 5.74L118.97 5.74L118.97 5.74Q119.01 5.98 119.04 6.07L119.04 6.07L119.04 6.07Q119.06 6.16 119.06 6.31L119.06 6.31L119.06 6.31Q119.06 6.78 118.85 7.18L118.85 7.18L118.85 7.18Q118.65 7.57 118.30 7.74L118.30 7.74L118.30 7.74Q118.02 7.36 117.61 7.09L117.61 7.09L117.61 7.09Q117.21 6.82 116.73 6.64L116.73 6.64L116.73 6.64Q116.24 6.47 115.72 6.38L115.72 6.38L115.72 6.38Q115.21 6.30 114.72 6.30L114.72 6.30L114.72 6.30Q114.23 6.30 113.80 6.38L113.80 6.38L113.80 6.38Q113.37 6.45 113.04 6.59L113.04 6.59L113.04 6.59Q112.71 6.72 112.53 6.92L112.53 6.92L112.53 6.92Q112.34 7.11 112.34 7.36L112.34 7.36L112.34 7.36Q112.38 7.67 112.71 7.99L112.71 7.99L112.71 7.99Q113.05 8.30 113.54 8.60L113.54 8.60L113.54 8.60Q114.03 8.90 114.63 9.20L114.63 9.20L114.63 9.20Q115.22 9.49 115.79 9.76L115.79 9.76L115.79 9.76Q116.51 10.09 117.03 10.38L117.03 10.38L117.03 10.38Q117.54 10.67 117.88 11.01L117.88 11.01L117.88 11.01Q118.22 11.35 118.38 11.79L118.38 11.79L118.38 11.79Q118.55 12.22 118.55 12.84L118.55 12.84L118.55 12.84Q118.55 13.55 118.31 14.18L118.31 14.18L118.31 14.18Q118.08 14.80 117.62 15.26L117.62 15.26L117.62 15.26Q117.17 15.72 116.52 15.98L116.52 15.98L116.52 15.98Q115.88 16.24 115.08 16.24L115.08 16.24L115.08 16.24Q114.30 16.24 113.39 16.00L113.39 16.00L113.39 16.00Q112.48 15.76 111.69 15.35L111.69 15.35L111.69 15.35Q110.89 14.94 110.37 14.40L110.37 14.40L110.37 14.40Q109.84 13.86 109.84 13.26L109.84 13.26L109.84 13.26Q109.84 12.98 110.01 12.54L110.01 12.54L110.01 12.54Q110.17 12.11 110.59 11.63L110.59 11.63L110.59 11.63Q110.63 12.05 111.04 12.63L111.04 12.63L111.04 12.63Q111.45 13.20 112.28 13.69L112.28 13.69L112.28 13.69Q113.05 14.14 113.87 14.34L113.87 14.34L113.87 14.34Q114.69 14.55 115.40 14.55L115.40 14.55L115.40 14.55Q116.19 14.55 116.68 14.35L116.68 14.35L116.68 14.35Q117.17 14.15 117.45 13.88L117.45 13.88L117.45 13.88Q117.73 13.61 117.84 13.33L117.84 13.33L117.84 13.33Q117.95 13.05 117.96 12.88L117.96 12.88L117.96 12.88Q117.95 12.60 117.71 12.34L117.71 12.34L117.71 12.34Q117.46 12.08 117.05 11.84L117.05 11.84L117.05 11.84Q116.63 11.59 116.09 11.34L116.09 11.34L116.09 11.34Q115.54 11.09 114.95 10.84L114.95 10.84L114.95 10.84Q114.07 10.44 113.44 10.10L113.44 10.10L113.44 10.10Q112.80 9.76 112.39 9.40L112.39 9.40L112.39 9.40Q111.97 9.04 111.78 8.65L111.78 8.65L111.78 8.65Q111.59 8.26 111.59 7.76L111.59 7.76L111.59 7.76Q111.59 6.97 112.07 6.27L112.07 6.27L112.07 6.27Q112.55 5.57 113.44 5.21L113.44 5.21L113.44 5.21Q113.89 5.01 114.40 4.93L114.40 4.93L114.40 4.93Q114.91 4.84 115.40 4.84L115.40 4.84L115.40 4.84Q116.33 4.84 117.21 5.10L117.21 5.10L117.21 5.10Q118.09 5.35 118.97 5.74ZM132.13 14.36L132.13 14.36L132.13 14.36Q132.13 13.78 132.33 12.85L132.33 12.85L132.33 12.85Q132.52 11.93 132.85 10.88L132.85 10.88L132.85 10.88Q131.92 10.95 130.99 11.06L130.99 11.06L130.99 11.06Q130.06 11.17 129.37 11.19L129.37 11.19L129.37 11.19Q128.74 12.66 128.37 13.89L128.37 13.89L128.37 13.89Q128.00 15.13 127.79 16.31L127.79 16.31L127.79 16.31Q127.26 16.18 126.91 15.87L126.91 15.87L126.91 15.87Q126.56 15.55 126.27 15.08L126.27 15.08L126.27 15.08Q126.38 14.85 126.53 14.50L126.53 14.50L126.53 14.50Q126.67 14.15 126.88 13.66L126.88 13.66L126.88 13.66Q127.08 13.16 127.34 12.50L127.34 12.50L127.34 12.50Q127.60 11.83 127.93 10.95L127.93 10.95L127.93 10.95Q127.47 10.75 127.32 10.40L127.32 10.40L127.32 10.40Q127.39 10.35 127.63 10.28L127.63 10.28L127.63 10.28Q127.88 10.22 128.24 10.15L128.24 10.15L128.42 9.70L128.42 9.70Q128.72 8.95 128.91 8.43L128.91 8.43L128.91 8.43Q129.09 7.91 129.23 7.41L129.23 7.41L129.23 7.41Q129.36 6.92 129.48 6.31L129.48 6.31L129.48 6.31Q129.60 5.71 129.77 4.79L129.77 4.79L129.77 4.79Q130.35 4.90 130.84 5.31L130.84 5.31L130.84 5.31Q131.32 5.71 131.67 6.29L131.67 6.29L131.67 6.29Q131.54 6.45 131.36 6.79L131.36 6.79L131.36 6.79Q131.18 7.13 130.96 7.59L130.96 7.59L130.96 7.59Q130.75 8.06 130.49 8.64L130.49 8.64L130.49 8.64Q130.24 9.23 129.95 9.87L129.95 9.87L129.95 9.87Q130.82 9.76 131.71 9.66L131.71 9.66L131.71 9.66Q132.59 9.56 133.28 9.52L133.28 9.52L133.28 9.52Q133.53 8.79 133.81 8.10L133.81 8.10L133.81 8.10Q134.08 7.41 134.34 6.83L134.34 6.83L134.34 6.83Q134.61 6.26 134.86 5.82L134.86 5.82L134.86 5.82Q135.10 5.39 135.30 5.18L135.30 5.18L135.30 5.18Q135.44 5.19 135.67 5.29L135.67 5.29L135.67 5.29Q135.90 5.38 136.14 5.50L136.14 5.50L136.14 5.50Q136.37 5.63 136.57 5.78L136.57 5.78L136.57 5.78Q136.77 5.92 136.84 6.05L136.84 6.05L136.84 6.05Q136.58 6.29 136.33 6.66L136.33 6.66L136.33 6.66Q136.08 7.04 135.84 7.53L135.84 7.53L135.84 7.53Q135.59 8.02 135.35 8.60L135.35 8.60L135.35 8.60Q135.11 9.17 134.90 9.79L134.90 9.79L134.90 9.79Q135.18 10.04 135.18 10.42L135.18 10.42L135.18 10.42Q135.18 10.68 135.07 10.91L135.07 10.91L135.07 10.91Q134.95 10.88 134.82 10.87L134.82 10.87L134.82 10.87Q134.69 10.86 134.55 10.85L134.55 10.85L134.55 10.85Q134.32 11.61 134.12 12.35L134.12 12.35L134.12 12.35Q133.92 13.09 133.79 13.76L133.79 13.76L133.79 13.76Q133.66 14.43 133.58 14.99L133.58 14.99L133.58 14.99Q133.50 15.55 133.50 15.93L133.50 15.93L133.50 15.93Q133.50 16.07 133.51 16.16L133.51 16.16L133.51 16.16Q133.52 16.24 133.53 16.30L133.53 16.30L133.53 16.30Q133.22 16.28 133.08 16.19L133.08 16.19L133.08 16.19Q132.94 16.10 132.87 16.00L132.87 16.00L132.87 16.00Q132.80 15.89 132.75 15.79L132.75 15.79L132.75 15.79Q132.69 15.68 132.57 15.62L132.57 15.62L132.57 15.62Q132.47 15.58 132.38 15.43L132.38 15.43L132.38 15.43Q132.30 15.27 132.24 15.08L132.24 15.08L132.24 15.08Q132.19 14.88 132.16 14.69L132.16 14.69L132.16 14.69Q132.13 14.49 132.13 14.36ZM149.58 4.98L149.58 4.98L149.58 4.98Q149.84 5.10 150.12 5.27L150.12 5.27L150.12 5.27Q150.40 5.45 150.64 5.63L150.64 5.63L150.64 5.63Q150.88 5.81 151.04 5.98L151.04 5.98L151.04 5.98Q151.20 6.16 151.21 6.27L151.21 6.27L151.21 6.27Q150.98 6.22 150.74 6.20L150.74 6.20L150.74 6.20Q150.50 6.17 150.30 6.17L150.30 6.17L150.30 6.17Q149.67 6.17 149.05 6.48L149.05 6.48L149.05 6.48Q148.43 6.79 147.87 7.32L147.87 7.32L147.87 7.32Q147.31 7.85 146.83 8.57L146.83 8.57L146.83 8.57Q146.36 9.28 146.01 10.09L146.01 10.09L146.01 10.09Q145.67 10.91 145.47 11.77L145.47 11.77L145.47 11.77Q145.28 12.64 145.28 13.48L145.28 13.48L145.28 13.48Q145.28 14.57 145.64 15.11L145.64 15.11L145.64 15.11Q146.01 15.64 146.71 15.64L146.71 15.64L146.71 15.64Q147.04 15.64 147.43 15.51L147.43 15.51L147.43 15.51Q147.83 15.37 148.23 15.13L148.23 15.13L148.23 15.13Q148.64 14.90 149.03 14.56L149.03 14.56L149.03 14.56Q149.42 14.22 149.76 13.82L149.76 13.82L149.76 13.82Q150.25 13.23 150.64 12.48L150.64 12.48L150.64 12.48Q151.03 11.73 151.31 10.89L151.31 10.89L151.31 10.89Q151.58 10.05 151.72 9.16L151.72 9.16L151.72 9.16Q151.87 8.27 151.87 7.42L151.87 7.42L151.87 7.42Q151.87 7.08 151.86 6.85L151.86 6.85L151.86 6.85Q151.84 6.62 151.82 6.46L151.82 6.46L151.82 6.46Q151.80 6.30 151.79 6.20L151.79 6.20L151.79 6.20Q151.77 6.10 151.76 6.03L151.76 6.03L151.76 6.03Q151.93 6.12 152.13 6.24L152.13 6.24L152.13 6.24Q152.33 6.36 152.51 6.59L152.51 6.59L152.51 6.59Q152.68 6.82 152.80 7.20L152.80 7.20L152.80 7.20Q152.92 7.57 152.92 8.18L152.92 8.18L152.92 8.18Q152.92 9.16 152.69 10.10L152.69 10.10L152.69 10.10Q152.46 11.05 152.05 11.90L152.05 11.90L152.05 11.90Q151.63 12.75 151.07 13.50L151.07 13.50L151.07 13.50Q150.51 14.24 149.87 14.80L149.87 14.80L149.87 14.80Q149.03 15.54 148.08 15.95L148.08 15.95L148.08 15.95Q147.13 16.35 146.24 16.35L146.24 16.35L146.24 16.35Q144.96 16.35 144.28 15.53L144.28 15.53L144.28 15.53Q143.60 14.71 143.60 13.12L143.60 13.12L143.60 13.12Q143.60 12.26 143.79 11.31L143.79 11.31L143.79 11.31Q143.98 10.36 144.32 9.44L144.32 9.44L144.32 9.44Q144.66 8.51 145.14 7.68L145.14 7.68L145.14 7.68Q145.61 6.85 146.18 6.21L146.18 6.21L146.18 6.21Q146.75 5.57 147.40 5.19L147.40 5.19L147.40 5.19Q148.05 4.82 148.74 4.82L148.74 4.82L148.74 4.82Q148.96 4.82 149.16 4.85L149.16 4.85L149.16 4.85Q149.35 4.89 149.58 4.98ZM166.03 9.21L166.03 9.21L166.03 9.21Q166.49 9.21 166.75 9.46L166.75 9.46L166.75 9.46Q167.01 9.72 167.01 10.16L167.01 10.16L167.01 10.16Q167.01 10.28 166.98 10.39L166.98 10.39L166.98 10.39Q166.96 10.51 166.94 10.60L166.94 10.60L166.94 10.60Q166.75 10.57 166.53 10.55L166.53 10.55L166.53 10.55Q166.31 10.53 166.00 10.53L166.00 10.53L166.00 10.53Q165.40 10.53 164.78 10.63L164.78 10.63L164.78 10.63Q164.16 10.74 163.60 10.81L163.60 10.81L163.60 10.81Q163.28 11.55 163.02 12.24L163.02 12.24L163.02 12.24Q162.75 12.94 162.56 13.51L162.56 13.51L162.56 13.51Q162.37 14.08 162.27 14.50L162.27 14.50L162.27 14.50Q162.16 14.92 162.15 15.13L162.15 15.13L162.15 15.13Q163.28 14.90 164.44 14.73L164.44 14.73L164.44 14.73Q165.59 14.56 166.87 14.48L166.87 14.48L166.87 14.48Q167.02 14.71 167.12 14.99L167.12 14.99L167.12 14.99Q167.23 15.27 167.23 15.60L167.23 15.60L167.23 15.60Q167.23 15.68 167.23 15.78L167.23 15.78L167.23 15.78Q167.23 15.88 167.20 15.97L167.20 15.97L167.20 15.97Q166.81 15.96 166.38 15.95L166.38 15.95L166.38 15.95Q165.94 15.95 165.24 15.95L165.24 15.95L165.24 15.95Q164.78 15.95 164.37 15.97L164.37 15.97L164.37 15.97Q163.95 15.99 163.53 16.03L163.53 16.03L163.53 16.03Q163.11 16.07 162.64 16.14L162.64 16.14L162.64 16.14Q162.18 16.21 161.59 16.31L161.59 16.31L161.59 16.31Q160.94 16.06 160.34 15.08L160.34 15.08L160.34 15.08Q160.58 14.57 161.01 13.54L161.01 13.54L161.01 13.54Q161.43 12.52 162.09 10.79L162.09 10.79L162.09 10.79Q161.46 10.60 161.27 10.09L161.27 10.09L161.27 10.09Q161.34 10.02 161.67 9.92L161.67 9.92L161.67 9.92Q162.01 9.81 162.50 9.70L162.50 9.70L162.50 9.70Q162.71 9.16 162.85 8.75L162.85 8.75L162.85 8.75Q163.00 8.34 163.11 7.99L163.11 7.99L163.11 7.99Q163.23 7.63 163.32 7.29L163.32 7.29L163.32 7.29Q163.41 6.94 163.49 6.54L163.49 6.54L163.49 6.54Q163.00 6.51 162.72 6.27L162.72 6.27L162.72 6.27Q162.44 6.02 162.44 5.63L162.44 5.63L162.44 5.63Q162.44 5.52 162.48 5.36L162.48 5.36L162.48 5.36Q162.51 5.21 162.55 5.10L162.55 5.10L162.55 5.10Q162.83 5.14 163.09 5.15L163.09 5.15L163.09 5.15Q163.35 5.17 163.77 5.17L163.77 5.17L163.77 5.17Q164.65 5.17 165.42 5.12L165.42 5.12L165.42 5.12Q166.19 5.07 166.82 5.01L166.82 5.01L166.82 5.01Q167.44 4.96 167.89 4.91L167.89 4.91L167.89 4.91Q168.34 4.86 168.57 4.86L168.57 4.86L168.57 4.86Q168.90 4.86 169.15 5.19L169.15 5.19L169.15 5.19Q169.40 5.53 169.53 6.15L169.53 6.15L169.53 6.15Q169.09 6.10 168.82 6.09L168.82 6.09L168.82 6.09Q168.55 6.08 168.34 6.08L168.34 6.08L168.34 6.08Q167.57 6.08 166.93 6.15L166.93 6.15L166.93 6.15Q166.29 6.23 165.70 6.31L165.70 6.31L165.70 6.31Q165.62 6.44 165.51 6.64L165.51 6.64L165.51 6.64Q165.41 6.83 165.24 7.18L165.24 7.18L165.24 7.18Q165.07 7.53 164.83 8.06L164.83 8.06L164.83 8.06Q164.58 8.60 164.23 9.39L164.23 9.39L164.23 9.39Q164.77 9.31 165.23 9.26L165.23 9.26L165.23 9.26Q165.70 9.21 166.03 9.21Z"></path></g></svg>